<svg id="svg" version="1.1" xmlns="http://www.w3.org/2000/svg" xmlns:xlink="http://www.w3.org/1999/xlink" width="400" height="400" viewBox="0, 0, 400,400"><g id="svgg"><path id="path0" d="M187.556 1.662 C 172.711 5.276,166.608 11.800,162.932 27.986 L 160.614 38.194 148.307 42.777 C 141.538 45.298,133.350 48.750,130.112 50.449 L 124.223 53.539 118.556 47.886 C 79.841 9.267,17.990 68.856,55.053 109.065 C 60.922 115.432,61.634 117.038,59.921 120.039 C 58.817 121.973,55.356 129.956,52.231 137.778 L 46.547 152.000 37.940 153.334 C 33.206 154.068,26.716 155.108,23.518 155.644 C 7.877 158.268,-1.227 176.175,0.472 200.972 C 2.133 225.194,11.386 235.343,34.139 237.897 C 46.362 239.269,45.405 238.190,54.015 260.310 L 60.190 276.176 54.029 283.374 C 19.444 323.779,82.576 382.890,118.956 344.165 L 122.947 339.917 137.473 346.713 C 145.463 350.450,154.200 354.055,156.889 354.725 C 161.102 355.773,161.779 356.836,161.788 362.415 C 161.823 385.164,174.104 397.681,198.178 399.501 C 229.195 401.847,242.837 392.072,246.243 365.060 C 247.320 356.515,247.777 355.825,253.032 354.817 C 256.131 354.223,264.993 350.974,272.726 347.598 L 286.785 341.459 292.734 346.682 C 331.740 380.930,386.642 323.073,353.667 282.470 L 349.897 277.828 353.880 270.025 C 356.071 265.734,359.613 257.037,361.752 250.700 C 365.498 239.598,365.926 239.097,373.487 236.943 C 390.487 232.098,397.395 223.549,399.339 204.950 C 402.361 176.035,392.586 157.428,372.988 154.791 C 365.519 153.786,365.422 153.679,360.821 141.333 C 358.271 134.489,354.479 125.593,352.396 121.566 L 348.609 114.243 352.956 110.160 C 392.163 73.326,331.303 10.781,290.832 46.315 C 284.986 51.449,284.367 51.608,279.655 49.201 C 276.911 47.800,268.684 44.507,261.371 41.885 C 246.724 36.632,245.400 35.432,245.361 27.374 C 245.263 7.668,216.125 -5.293,187.556 1.662 M223.489 20.684 C 227.526 23.698,228.782 26.550,230.391 36.360 C 232.701 50.446,230.638 48.832,262.709 61.645 L 288.085 71.783 296.487 63.652 C 312.609 48.051,324.208 47.100,338.381 60.217 C 352.471 73.258,351.989 88.647,337.041 103.015 C 328.809 110.927,328.869 111.532,340.616 139.218 C 352.424 167.047,352.788 167.492,365.633 169.799 C 389.684 174.120,392.151 217.078,368.584 221.182 C 353.350 223.834,353.216 223.990,341.518 252.562 C 328.882 283.426,329.341 280.754,335.556 287.287 C 353.083 305.712,353.130 318.258,335.727 333.155 C 324.125 343.086,309.834 341.786,298.667 329.783 C 290.424 320.925,290.132 320.946,260.968 332.590 C 229.871 345.006,231.912 343.202,230.285 359.712 C 228.363 379.222,223.279 384.000,204.444 384.000 C 185.445 384.000,179.349 378.433,178.166 360.003 C 177.124 343.760,177.757 344.356,148.107 331.748 C 120.426 319.978,119.818 319.918,111.904 328.152 C 97.200 343.449,83.952 344.048,69.952 330.048 C 56.211 316.308,56.596 302.598,71.105 288.889 C 80.851 279.681,80.851 279.532,71.001 254.746 C 58.464 223.200,59.987 224.874,41.684 222.511 C 20.811 219.817,16.000 214.767,16.000 195.556 C 16.000 176.294,20.262 172.052,42.589 169.086 C 60.830 166.662,58.555 168.959,70.246 141.172 C 81.866 113.553,81.916 112.799,72.742 103.916 C 57.981 89.623,56.021 76.017,66.978 63.890 C 81.864 47.413,93.995 47.149,111.072 62.932 C 122.200 73.216,122.419 73.205,151.192 60.866 L 175.083 50.620 177.953 36.634 C 181.657 18.586,185.553 15.861,206.610 16.587 C 215.461 16.892,219.831 17.953,223.489 20.684 M183.111 98.829 C 108.270 118.694,85.404 212.997,142.984 264.317 C 198.313 313.631,286.234 283.856,301.280 210.709 C 315.258 142.755,250.086 81.052,183.111 98.829 M226.605 114.725 C 292.895 131.992,308.281 220.937,251.497 258.628 C 202.463 291.175,137.371 262.453,127.684 203.996 C 118.536 148.788,172.032 100.511,226.605 114.725 " stroke="none" fill-rule="evenodd"></path></g></svg>