<svg id="svg" version="1.1" xmlns="http://www.w3.org/2000/svg" xmlns:xlink="http://www.w3.org/1999/xlink" width="400" height="435.34883720930236" viewBox="0, 0, 400,435.34883720930236"><g id="svgg"><path id="path0" d="M156.658 41.093 C 143.210 47.877,135.814 61.121,135.814 78.417 L 135.814 87.442 95.754 87.442 C 41.319 87.442,35.371 90.409,35.356 117.569 C 35.345 137.560,19.726 135.814,198.553 135.814 C 377.568 135.814,360.936 137.767,360.923 116.744 C 360.908 90.553,354.523 87.442,300.794 87.442 L 261.003 87.442 259.854 75.132 C 258.457 60.176,252.284 48.669,242.342 42.487 C 231.741 35.896,168.985 34.875,156.658 41.093 M232.638 62.947 C 235.855 65.551,237.059 68.853,237.726 76.900 L 238.600 87.442 198.370 87.442 L 158.140 87.442 158.140 78.055 C 158.140 60.969,161.215 59.535,197.849 59.535 C 224.730 59.535,228.934 59.947,232.638 62.947 M163.793 65.467 C 159.783 69.772,158.264 85.581,161.860 85.581 C 162.884 85.581,163.721 82.797,163.721 79.394 C 163.721 66.816,168.232 65.116,201.625 65.116 C 220.679 65.116,230.515 64.466,229.767 63.256 C 227.133 58.993,167.978 60.976,163.793 65.467 M261.777 72.558 C 262.365 79.209,263.148 85.000,263.516 85.426 C 264.934 87.067,263.840 67.712,262.316 64.186 C 261.320 61.882,261.114 65.071,261.777 72.558 M362.921 116.609 C 362.693 139.891,379.540 137.799,196.897 137.230 C 71.706 136.840,41.490 137.204,44.042 139.070 C 46.526 140.886,81.108 141.395,201.965 141.395 C 381.927 141.395,366.620 143.183,366.381 122.191 C 366.186 105.039,363.084 100.034,362.921 116.609 M72.569 260.000 C 72.580 365.092,72.686 366.257,83.227 377.153 C 86.969 381.021,89.873 384.796,89.680 385.541 C 87.492 393.990,283.830 399.479,304.631 391.551 C 315.231 387.511,324.833 376.007,327.332 364.353 C 329.890 352.424,329.991 171.387,327.442 167.442 C 326.264 165.620,325.628 197.461,325.610 259.176 C 325.590 324.396,324.915 356.347,323.432 362.235 C 320.655 373.267,308.850 385.818,298.605 388.632 C 286.340 392.002,102.967 391.287,95.814 387.842 C 91.592 385.808,91.366 385.489,94.884 386.530 C 97.442 387.287,144.387 387.907,199.207 387.907 L 298.879 387.907 306.612 382.789 C 323.220 371.796,322.719 375.398,323.318 262.791 L 323.845 163.721 198.202 163.721 L 72.558 163.721 72.569 260.000 M144.981 203.972 C 149.795 210.092,150.991 329.102,146.301 335.276 C 140.502 342.908,125.247 342.107,122.139 334.008 C 118.379 324.210,120.909 207.704,124.975 203.376 C 130.694 197.288,139.941 197.564,144.981 203.972 M208.237 203.972 C 212.538 209.439,214.368 327.156,210.272 334.810 C 205.969 342.851,188.573 342.290,185.395 334.008 C 181.635 324.210,184.165 207.704,188.231 203.376 C 193.950 197.288,203.197 197.564,208.237 203.972 M271.043 203.115 L 275.349 207.160 275.349 269.284 C 275.349 306.249,274.611 332.786,273.528 334.810 C 269.224 342.851,251.829 342.290,248.651 334.008 C 244.891 324.210,247.421 207.704,251.487 203.376 C 256.672 197.857,265.323 197.742,271.043 203.115 M125.870 204.333 C 122.233 208.351,121.073 331.742,124.651 333.953 C 125.877 334.711,126.512 313.914,126.512 272.956 C 126.512 204.071,126.401 204.687,138.751 204.623 C 142.944 204.601,143.548 204.182,141.395 202.791 C 136.907 199.890,129.197 200.656,125.870 204.333 M189.126 204.333 C 185.489 208.351,184.329 331.742,187.907 333.953 C 189.133 334.711,189.767 313.853,189.767 272.773 C 189.767 203.515,189.541 204.703,202.740 204.623 C 206.459 204.600,206.858 204.217,204.651 202.791 C 200.163 199.890,192.453 200.656,189.126 204.333 M253.023 204.651 C 248.814 208.860,247.051 331.412,251.163 333.953 C 252.389 334.711,253.023 314.128,253.023 273.598 C 253.023 205.383,253.149 204.692,265.581 204.623 C 269.568 204.600,270.082 204.196,267.907 202.791 C 263.381 199.866,257.012 200.662,253.023 204.651 " stroke="none" fill-rule="evenodd"></path></g></svg>