<svg id="svg" version="1.1" xmlns="http://www.w3.org/2000/svg" xmlns:xlink="http://www.w3.org/1999/xlink" width="400" height="400" viewBox="0, 0, 400,400"><g id="svgg"><path id="path0" d="M122.667 170.667 L 122.667 286.222 207.111 286.222 L 291.556 286.222 291.556 170.667 L 291.556 55.111 207.111 55.111 L 122.667 55.111 122.667 170.667 M233.859 89.309 C 291.634 118.971,271.831 204.662,207.074 205.212 C 136.812 205.809,122.972 107.179,190.222 85.117 C 199.646 82.025,224.282 84.392,233.859 89.309 M196.306 117.185 C 193.044 120.404,195.994 126.222,200.889 126.222 L 206.222 126.222 206.222 148.949 L 206.222 171.676 212.000 171.616 L 217.778 171.556 217.778 144.000 L 217.778 116.444 207.417 116.444 C 201.719 116.444,196.719 116.778,196.306 117.185 M0.000 205.333 L 0.000 286.222 54.222 286.222 L 108.444 286.222 108.444 205.333 L 108.444 124.444 54.222 124.444 L 0.000 124.444 0.000 205.333 M73.763 156.080 C 92.570 169.217,94.468 196.272,77.621 211.064 C 54.895 231.018,19.741 215.120,19.595 184.821 C 19.461 157.241,51.266 140.365,73.763 156.080 M305.778 222.222 L 305.778 286.222 352.889 286.222 L 400.000 286.222 400.000 222.222 L 400.000 158.222 352.889 158.222 L 305.778 158.222 305.778 222.222 M47.169 170.939 C 41.312 175.546,45.042 179.655,51.449 175.654 C 62.090 169.008,57.055 184.050,45.401 193.722 C 39.294 198.790,42.181 200.889,55.259 200.889 C 68.907 200.889,72.478 196.957,59.801 195.889 L 53.210 195.334 58.605 188.522 C 69.468 174.807,60.256 160.644,47.169 170.939 M364.974 180.180 C 383.350 187.858,389.620 211.949,377.269 227.419 C 357.862 251.725,322.667 239.781,322.667 208.889 C 322.667 185.072,343.252 171.104,364.974 180.180 M344.296 194.963 C 341.879 197.380,343.239 199.111,347.556 199.111 C 352.045 199.111,353.497 201.532,350.222 203.556 C 347.227 205.407,348.244 209.475,352.000 210.667 C 358.862 212.844,356.502 219.240,349.333 217.895 C 344.521 216.992,343.111 217.318,343.111 219.334 C 343.111 223.426,353.144 224.824,358.294 221.449 C 364.222 217.566,363.951 206.222,357.931 206.222 C 355.737 206.222,355.765 205.635,358.121 202.271 C 362.733 195.687,361.623 193.778,353.185 193.778 C 348.948 193.778,344.948 194.311,344.296 194.963 M171.111 299.943 L 0.000 300.462 0.000 322.676 L 0.000 344.889 200.000 344.889 L 400.000 344.889 400.000 322.667 L 400.000 300.444 376.222 300.444 C 363.144 300.444,350.144 300.215,347.333 299.934 C 344.522 299.654,265.222 299.658,171.111 299.943 " stroke="none" fill-rule="evenodd"></path></g></svg>