<svg id="svg" version="1.1" xmlns="http://www.w3.org/2000/svg" xmlns:xlink="http://www.w3.org/1999/xlink" width="400" height="392" viewBox="0, 0, 400,392"><g id="svgg"><path id="path0" d="M148.434 13.250 C 139.638 23.670,140.313 36.000,149.680 36.000 C 152.206 36.000,157.000 31.977,157.000 29.857 C 157.000 29.138,157.754 29.433,158.806 30.561 C 161.030 32.948,161.404 34.500,159.755 34.500 C 157.770 34.500,153.919 45.577,153.288 53.103 C 152.970 56.896,152.599 60.000,152.464 60.000 C 152.329 60.000,150.269 59.127,147.886 58.060 L 143.553 56.120 146.176 55.123 C 151.926 52.937,153.614 46.347,149.944 40.409 C 146.468 34.786,129.000 27.202,129.000 31.316 C 129.000 39.130,132.655 48.941,137.120 53.113 L 139.944 55.750 133.472 55.750 C 126.499 55.750,126.179 55.564,128.579 52.913 C 133.274 47.724,128.446 40.085,119.272 38.188 C 114.130 37.125,108.000 37.650,108.000 39.153 C 108.000 40.910,112.226 48.507,114.638 51.083 L 117.055 53.667 113.095 54.853 C 109.141 56.038,101.000 63.888,101.000 66.516 C 101.000 68.749,111.618 69.856,116.228 68.103 L 118.586 67.207 115.806 72.719 C 112.362 79.546,112.563 79.867,120.001 79.411 C 132.964 78.615,139.881 71.015,134.119 63.898 C 132.094 61.398,125.932 60.981,123.298 63.167 C 122.287 64.007,122.000 63.628,122.000 61.451 C 122.000 59.915,121.255 57.835,120.345 56.829 C 118.219 54.479,119.662 54.496,123.549 56.867 C 125.226 57.889,129.051 58.979,132.049 59.288 C 140.484 60.159,146.628 62.786,152.193 67.904 L 157.284 72.584 154.642 74.315 C 152.034 76.024,152.000 76.015,152.000 73.594 C 152.000 69.707,147.253 66.049,140.250 64.541 C 136.234 63.676,135.869 66.033,139.015 72.530 C 141.217 77.081,144.543 79.194,148.056 78.275 C 149.616 77.867,150.092 78.042,149.597 78.842 C 149.204 79.479,147.809 80.000,146.498 80.000 C 141.671 80.000,139.348 87.904,142.425 93.855 C 144.838 98.522,151.104 100.277,156.528 97.805 C 164.131 94.341,163.660 80.000,155.943 80.000 C 152.079 80.000,152.187 78.479,156.149 77.098 C 157.881 76.494,159.482 76.000,159.705 76.000 C 160.541 76.000,163.990 84.857,165.014 89.630 C 165.845 93.506,165.745 95.977,164.552 101.039 C 163.715 104.593,163.023 110.098,163.015 113.273 L 163.000 119.045 155.218 113.592 C 147.937 108.490,134.837 101.533,128.067 99.173 L 125.097 98.138 128.939 94.296 C 132.490 90.745,134.981 85.156,134.994 80.705 C 134.999 79.171,134.453 79.012,131.250 79.612 C 121.410 81.454,116.439 85.783,117.247 91.805 L 117.768 95.690 110.334 93.961 C 103.438 92.358,100.019 91.000,102.879 91.000 C 105.468 91.000,109.000 86.141,109.000 82.580 C 109.000 76.182,99.510 68.312,89.541 66.442 L 85.692 65.720 86.370 71.491 L 87.048 77.263 84.116 74.124 C 76.793 66.285,68.023 64.929,68.757 71.750 C 70.371 86.755,86.898 94.245,87.022 80.027 C 87.040 77.951,87.408 78.303,89.084 82.000 C 90.206 84.475,92.109 87.576,93.312 88.892 L 95.500 91.284 91.500 90.638 C 89.300 90.284,83.601 89.705,78.836 89.353 C 72.403 88.878,70.299 88.384,70.663 87.435 C 71.983 83.996,64.180 78.080,58.250 78.022 C 52.136 77.962,59.234 91.915,65.405 92.086 L 68.500 92.172 65.501 93.066 C 61.481 94.265,60.000 96.550,60.000 101.556 C 60.000 114.786,78.564 116.626,80.677 103.606 C 81.759 96.935,77.423 91.473,72.534 93.348 C 71.726 93.659,70.798 93.482,70.473 92.956 C 69.920 92.061,71.198 91.726,75.169 91.726 C 77.058 91.726,95.072 95.967,96.299 96.701 C 97.663 97.517,95.097 99.731,92.088 100.332 C 86.946 101.361,83.973 104.900,83.757 110.250 L 83.565 115.000 79.818 115.000 C 75.331 115.000,74.000 116.878,74.000 123.212 C 74.000 133.157,85.288 137.645,92.090 130.404 C 96.681 125.517,94.869 115.000,89.437 115.000 C 88.161 115.000,86.840 114.550,86.500 114.000 C 86.133 113.406,87.299 113.000,89.368 113.000 C 93.436 113.000,96.320 110.000,98.162 103.853 C 99.893 98.076,100.978 97.576,107.393 99.598 C 112.918 101.340,113.955 103.000,109.518 103.000 C 103.262 103.000,98.000 112.448,98.000 123.682 C 98.000 129.670,98.120 129.735,104.318 127.078 C 115.284 122.378,120.939 112.642,116.438 106.215 C 109.947 96.948,141.269 112.679,155.414 125.790 C 161.382 131.322,168.469 140.039,170.946 144.894 L 172.894 148.713 166.295 145.209 C 162.665 143.281,157.176 140.912,154.098 139.943 C 151.019 138.975,149.255 138.141,150.179 138.091 C 162.028 137.447,151.090 118.000,138.878 118.000 C 135.021 118.000,138.243 131.556,143.200 136.187 L 146.212 139.000 140.451 139.000 C 134.842 139.000,134.736 138.950,136.420 137.088 C 138.812 134.446,138.077 130.127,134.824 127.709 C 131.747 125.422,122.000 124.051,122.000 125.905 C 122.000 128.752,125.052 133.898,128.359 136.623 L 131.966 139.596 127.931 140.673 L 123.896 141.750 124.521 138.903 C 125.315 135.289,121.936 131.631,116.378 130.088 C 110.622 128.490,109.000 128.701,109.000 131.050 C 109.000 135.962,115.066 142.963,119.385 143.035 C 121.367 143.069,121.343 143.161,119.000 144.500 C 115.196 146.675,113.000 146.382,113.000 143.700 C 113.000 140.396,111.147 139.000,106.760 139.000 C 102.418 139.000,95.000 142.370,95.000 144.343 C 95.000 146.243,103.138 150.000,107.253 150.000 C 109.502 150.000,110.999 150.556,111.373 151.530 C 111.884 152.861,112.480 152.796,115.940 151.030 C 121.204 148.345,121.200 148.343,118.973 153.250 C 116.335 159.061,116.229 169.000,118.804 169.000 C 121.665 169.000,129.942 163.266,131.803 159.995 C 133.542 156.938,135.000 156.100,135.000 158.156 C 135.000 159.936,139.940 166.000,141.390 166.000 C 144.806 166.000,146.467 152.610,143.429 149.571 C 141.308 147.451,138.070 147.592,135.564 149.914 C 133.523 151.806,133.463 151.796,130.140 148.999 L 126.781 146.171 132.306 145.481 C 138.532 144.703,150.179 146.362,154.000 148.571 L 156.500 150.016 153.500 149.425 C 151.850 149.099,149.920 148.653,149.212 148.433 C 146.949 147.731,146.782 150.720,148.827 155.343 C 151.102 160.485,154.912 163.480,157.951 162.516 C 159.143 162.137,160.000 162.312,160.000 162.933 C 160.000 163.520,158.705 164.000,157.122 164.000 C 151.918 164.000,149.372 171.030,152.388 177.075 C 154.426 181.161,154.210 181.338,149.304 179.607 C 142.812 177.317,130.441 175.682,124.011 176.265 L 118.036 176.807 113.268 170.892 C 103.823 159.174,89.697 149.889,75.914 146.338 C 68.478 144.423,67.751 143.728,71.250 141.885 C 74.329 140.264,74.967 139.080,74.985 134.956 C 75.002 130.912,69.314 120.500,67.088 120.500 C 63.234 120.500,59.700 135.367,62.528 139.683 C 65.239 143.821,60.813 140.839,56.692 135.751 C 53.114 131.333,48.726 123.505,51.086 125.750 C 57.642 131.986,65.464 123.142,61.591 113.872 C 56.624 101.986,51.155 103.294,49.302 116.811 C 48.832 120.243,48.489 120.916,47.956 119.457 C 47.123 117.180,47.495 104.765,48.517 100.750 C 49.051 98.653,48.857 98.000,47.702 98.000 C 45.821 98.000,43.000 105.907,43.000 111.178 C 43.000 115.192,41.556 116.327,40.536 113.114 C 38.730 107.424,19.000 99.893,19.000 104.895 C 19.000 119.833,32.816 131.774,40.060 123.097 L 42.765 119.858 43.311 123.179 C 43.611 125.005,44.167 127.738,44.545 129.251 C 45.233 132.001,45.232 132.002,42.367 130.507 C 38.890 128.694,30.601 128.621,26.506 130.367 L 23.512 131.643 29.031 137.162 C 37.004 145.135,44.282 145.631,46.429 138.348 L 47.359 135.195 50.253 139.191 C 53.760 144.032,54.456 143.483,43.000 144.918 C 37.775 145.572,33.072 146.533,32.550 147.054 C 31.041 148.557,30.000 148.160,30.000 146.082 C 30.000 141.306,24.329 137.000,18.040 137.000 C 14.503 137.000,14.333 137.952,16.881 143.500 C 19.418 149.024,22.284 151.397,25.460 150.599 C 26.935 150.229,28.000 150.389,28.000 150.981 C 28.000 151.541,26.662 152.000,25.026 152.000 C 17.958 152.000,17.013 165.847,23.837 169.423 L 26.463 170.798 22.402 171.892 C 10.573 175.077,8.331 182.037,18.327 184.546 L 20.862 185.182 17.492 188.141 C 15.639 189.768,13.686 192.540,13.152 194.300 C 11.649 199.263,11.045 204.910,11.958 205.474 C 13.743 206.577,22.372 202.324,25.606 198.747 L 29.000 194.994 29.000 199.074 C 29.000 206.891,36.848 211.304,44.528 207.805 C 51.732 204.523,51.711 190.000,44.502 190.000 C 43.191 190.000,41.829 189.532,41.475 188.960 C 41.057 188.283,41.756 188.152,43.481 188.585 C 46.761 189.408,51.563 185.266,52.553 180.761 C 53.310 177.310,54.287 178.025,55.957 183.250 C 57.417 187.820,57.798 187.853,61.692 183.750 C 69.631 175.384,69.836 164.417,62.061 163.895 C 57.286 163.574,69.771 161.142,76.500 161.082 C 88.628 160.974,91.200 162.042,99.656 170.693 C 108.348 179.583,108.203 178.986,102.280 181.500 C 99.688 182.600,97.238 183.642,96.836 183.816 C 96.433 183.990,96.356 182.584,96.663 180.691 C 97.695 174.333,89.402 167.659,76.671 164.602 L 73.842 163.922 74.378 168.891 C 75.401 178.375,81.606 188.000,86.696 188.000 C 89.866 188.000,89.596 189.039,85.385 193.054 C 82.224 196.068,81.858 196.212,82.468 194.201 C 85.259 185.008,70.386 183.037,61.270 191.392 L 57.708 194.656 61.547 197.029 L 65.387 199.402 61.943 200.279 C 55.644 201.884,56.051 204.974,63.080 208.925 C 67.492 211.405,69.801 211.528,72.777 209.443 C 74.023 208.571,75.000 208.351,75.000 208.943 C 75.000 209.524,74.582 210.000,74.071 210.000 C 70.158 210.000,68.897 216.679,71.885 221.580 C 77.524 230.825,91.273 226.913,91.273 216.063 C 91.273 209.632,87.719 205.659,82.494 206.248 L 78.286 206.722 83.574 201.933 C 91.112 195.106,93.303 194.041,92.282 197.698 C 90.704 203.353,91.900 214.000,94.115 214.000 C 102.287 214.000,109.687 198.313,104.015 193.014 C 101.450 190.618,101.274 190.151,102.765 189.694 C 103.719 189.401,105.912 188.721,107.638 188.183 L 110.776 187.204 109.394 189.852 C 106.818 194.789,108.504 210.647,111.998 214.350 C 113.237 215.663,120.963 207.337,123.201 202.279 C 125.881 196.219,125.787 191.467,122.926 188.421 L 120.651 186.000 126.576 186.100 C 129.834 186.155,133.625 186.525,135.000 186.923 L 137.500 187.647 135.253 188.390 C 132.507 189.298,128.401 196.121,127.440 201.375 L 126.730 205.250 130.365 204.826 C 134.956 204.290,134.866 204.783,129.689 208.538 C 127.385 210.209,123.282 214.359,120.572 217.760 L 115.644 223.943 113.875 221.036 C 109.268 213.459,99.509 214.670,90.250 223.968 C 84.868 229.372,84.896 229.550,91.451 231.616 L 96.902 233.334 92.551 237.164 C 90.159 239.270,87.408 242.907,86.440 245.247 C 85.471 247.586,83.310 250.400,81.638 251.500 C 75.887 255.284,71.306 268.000,75.694 268.000 C 79.698 268.000,87.056 264.722,89.457 261.869 L 91.941 258.917 92.543 261.708 C 93.615 266.677,96.268 272.000,97.674 272.000 C 99.380 272.000,104.662 263.815,105.542 259.809 C 106.180 256.905,106.230 256.883,107.634 258.888 C 111.750 264.764,122.726 263.293,125.571 256.483 C 128.261 250.046,126.207 244.786,120.314 243.017 L 117.500 242.172 120.168 242.086 C 121.636 242.039,123.661 241.703,124.668 241.341 C 125.676 240.978,126.199 241.016,125.832 241.426 C 124.567 242.834,127.244 248.142,129.688 249.071 C 134.645 250.956,145.623 249.145,146.731 246.260 C 148.017 242.906,135.276 235.143,130.811 236.560 C 128.599 237.262,128.605 237.480,130.631 230.166 C 131.545 226.864,123.207 228.064,118.569 231.902 C 116.729 233.425,116.706 233.404,118.069 231.469 C 122.149 225.678,124.654 222.809,127.929 220.177 L 131.541 217.275 131.640 221.046 C 131.754 225.384,135.758 231.610,140.542 234.888 C 144.595 237.666,144.733 237.624,145.947 233.250 C 148.833 222.859,146.304 215.753,139.000 213.731 C 137.459 213.304,143.143 209.987,147.992 208.484 C 150.207 207.797,150.335 207.891,149.143 209.327 C 142.356 217.506,150.249 226.837,165.469 228.625 L 171.280 229.308 170.557 225.451 C 169.449 219.544,166.540 214.646,161.516 210.223 L 156.948 206.202 163.057 205.493 C 169.979 204.690,171.214 205.451,179.217 215.453 C 182.955 220.126,183.147 220.693,182.599 225.453 C 182.280 228.229,181.776 233.200,181.480 236.500 C 181.183 239.800,180.511 245.650,179.986 249.500 C 179.461 253.350,178.778 258.750,178.469 261.500 C 178.160 264.250,177.703 267.625,177.455 269.000 C 177.207 270.375,176.322 276.675,175.490 283.000 C 174.658 289.325,173.285 299.675,172.440 306.000 C 171.595 312.325,170.696 319.525,170.443 322.000 C 170.191 324.475,169.755 327.896,169.474 329.602 C 168.265 336.968,166.023 365.230,166.012 373.250 L 166.000 382.000 186.079 382.000 L 206.159 382.000 205.634 379.250 C 203.113 366.036,200.075 338.910,199.045 320.403 C 195.936 264.596,208.209 241.992,235.374 253.491 L 239.249 255.131 235.875 256.815 C 230.801 259.350,226.829 273.163,230.205 276.538 C 233.398 279.732,244.487 267.666,243.706 261.846 C 243.174 257.882,243.189 257.861,245.193 259.672 C 251.640 265.498,252.157 270.000,246.378 270.000 C 240.980 270.000,236.762 279.085,238.495 286.978 C 239.341 290.831,240.812 290.782,246.172 286.723 C 251.525 282.669,254.233 277.744,252.956 274.383 C 252.457 273.073,252.430 272.000,252.895 272.000 C 253.360 272.000,254.307 274.025,255.000 276.500 C 255.693 278.975,256.599 281.000,257.013 281.000 C 257.428 281.000,258.002 281.900,258.290 283.000 C 258.734 284.700,258.320 285.000,255.529 285.000 C 251.404 285.000,249.889 286.804,249.250 292.474 C 248.167 302.081,259.770 307.753,266.894 301.099 C 272.487 295.874,270.688 285.000,264.230 285.000 C 263.069 285.000,261.829 284.532,261.475 283.960 C 261.061 283.290,261.719 283.142,263.323 283.545 C 267.956 284.708,273.124 279.192,274.146 271.994 C 274.712 268.008,264.660 270.074,261.029 274.690 C 259.635 276.462,258.908 276.820,258.633 275.867 C 255.602 265.346,255.586 265.512,259.524 267.009 C 262.727 268.227,271.515 266.806,274.563 264.578 C 278.001 262.064,267.041 254.000,260.187 254.000 C 257.325 254.000,254.000 256.595,254.000 258.829 C 254.000 259.473,253.550 260.000,253.000 260.000 C 252.450 260.000,252.000 259.620,252.000 259.156 C 252.000 255.689,237.804 246.149,230.241 244.533 C 226.059 243.640,226.897 242.378,233.657 239.388 C 240.324 236.440,240.048 236.412,238.732 239.899 C 235.781 247.717,255.103 254.114,259.616 246.813 C 260.521 245.347,254.074 239.018,249.580 236.962 L 245.660 235.169 249.580 234.153 C 260.433 231.341,271.270 230.905,273.694 233.183 C 276.524 235.841,275.958 236.784,272.842 234.602 C 267.431 230.812,261.000 235.644,261.000 243.500 C 261.000 255.529,276.237 258.500,281.136 247.426 C 283.286 242.565,282.671 239.965,278.891 237.942 C 277.757 237.335,277.025 236.641,277.266 236.401 C 277.506 236.161,278.898 236.584,280.358 237.342 C 284.078 239.272,287.333 238.363,292.215 234.031 L 296.423 230.297 293.962 228.961 C 289.591 226.589,281.142 227.111,278.888 229.892 C 277.822 231.207,276.825 232.107,276.672 231.892 C 273.103 226.857,273.034 226.316,275.654 223.871 C 278.584 221.137,282.210 214.544,281.290 213.624 C 278.813 211.147,265.889 214.054,262.989 217.741 C 260.893 220.406,260.942 225.066,263.074 225.833 C 265.452 226.689,263.593 228.000,260.000 228.000 C 255.346 228.000,255.292 227.877,258.204 223.938 C 260.316 221.081,262.269 208.000,260.583 208.000 C 252.265 208.000,242.216 221.216,246.941 225.941 C 248.863 227.863,248.825 227.894,243.191 229.006 C 234.106 230.799,228.021 232.943,220.135 237.131 L 212.770 241.041 213.439 237.473 C 214.146 233.707,213.361 226.202,212.037 224.060 C 209.986 220.742,200.000 231.888,200.000 237.495 C 200.000 241.126,202.575 244.000,205.829 244.000 C 208.739 244.000,208.790 243.905,202.362 250.333 L 196.724 255.971 197.301 247.736 C 199.033 222.991,212.049 196.433,221.163 199.047 C 224.759 200.078,227.612 202.234,224.200 201.342 C 220.851 200.466,217.000 205.031,217.000 209.878 C 217.000 217.641,224.905 222.939,232.064 219.974 C 237.878 217.565,240.223 207.149,235.865 203.088 L 233.729 201.099 236.775 198.536 C 239.946 195.867,243.557 187.462,241.956 186.473 C 240.864 185.798,233.480 187.684,230.897 189.296 C 228.573 190.748,226.573 195.465,227.550 197.190 C 228.148 198.243,228.029 198.255,226.947 197.250 C 226.206 196.563,224.790 196.000,223.800 196.000 C 216.120 196.000,239.052 181.626,248.647 180.425 L 252.500 179.943 249.346 181.607 C 243.820 184.524,242.107 192.503,244.855 202.531 C 247.033 210.480,248.262 211.088,252.950 206.530 C 260.976 198.729,263.699 187.269,258.500 183.179 C 254.138 179.747,256.907 178.043,266.898 178.011 L 270.296 178.000 266.898 180.283 C 259.802 185.049,263.580 195.693,274.397 201.411 C 279.051 203.871,279.450 203.336,279.415 194.694 C 279.384 187.173,277.612 182.126,274.250 179.984 C 270.462 177.571,280.522 179.983,286.475 182.915 C 294.932 187.081,300.036 192.375,297.107 193.943 C 295.308 194.905,295.000 194.793,295.000 193.172 C 295.000 189.232,282.633 182.034,280.143 184.524 C 277.705 186.961,286.233 200.059,289.225 198.473 C 289.926 198.101,289.038 199.000,287.250 200.471 C 281.583 205.134,283.175 215.173,290.032 218.013 C 297.095 220.939,305.000 215.586,305.000 207.878 C 305.000 203.383,301.084 198.370,298.383 199.407 C 297.315 199.816,296.956 199.467,297.191 198.246 C 297.404 197.143,298.443 196.500,300.014 196.500 C 305.040 196.500,310.629 211.894,309.273 222.004 L 308.697 226.297 307.598 222.898 C 305.148 215.318,296.827 218.389,296.667 226.933 C 296.494 236.229,298.945 238.105,303.896 232.465 C 305.603 230.521,307.000 229.449,307.000 230.084 C 307.000 232.995,294.033 244.000,290.602 244.000 C 283.566 244.000,277.882 256.520,281.977 262.998 C 284.639 267.208,296.258 256.006,295.824 249.647 C 295.629 246.802,296.060 245.429,297.471 244.397 C 300.278 242.345,300.589 242.613,300.199 246.750 C 299.640 252.669,312.586 266.747,315.713 263.620 C 320.828 258.506,314.576 240.000,307.734 240.000 L 304.844 240.000 308.388 235.859 C 318.618 223.908,316.928 202.556,304.702 189.292 C 299.870 184.050,300.525 184.003,312.243 188.750 C 320.539 192.111,321.158 192.533,318.204 192.817 C 315.334 193.093,314.993 193.416,315.565 195.317 C 317.919 203.133,322.124 207.724,326.002 206.710 C 327.101 206.422,328.000 206.595,328.000 207.094 C 328.000 207.592,326.945 208.000,325.655 208.000 C 319.464 208.000,317.631 218.785,322.923 224.077 C 331.259 232.413,345.336 222.107,339.850 211.684 C 338.278 208.698,337.060 208.033,333.128 208.015 C 330.339 208.003,329.958 207.756,330.926 206.589 C 331.687 205.672,331.746 204.961,331.092 204.557 C 330.540 204.215,330.342 203.272,330.654 202.460 C 330.965 201.649,330.473 199.844,329.560 198.451 C 328.064 196.168,328.873 196.420,337.700 200.977 C 355.384 210.108,356.824 211.000,353.890 211.000 C 345.137 211.000,345.258 226.789,354.032 229.653 C 362.164 232.307,368.000 227.946,368.000 219.218 L 368.000 213.708 370.391 216.288 C 373.136 219.250,378.155 220.468,384.612 219.740 C 390.477 219.079,390.583 218.884,387.627 214.202 C 382.389 205.904,375.504 203.342,370.877 207.969 C 369.210 209.636,367.431 211.000,366.923 211.000 C 365.525 211.000,365.819 209.206,367.365 208.300 C 371.367 205.954,373.972 196.000,370.584 196.000 C 364.384 196.000,358.000 200.638,358.000 205.142 C 358.000 208.242,357.246 208.174,351.242 204.534 C 347.674 202.371,347.040 200.943,349.750 201.170 C 356.041 201.697,361.788 197.237,365.792 188.719 C 369.444 180.950,369.232 180.672,360.053 181.203 L 352.106 181.663 356.152 177.737 C 361.212 172.826,364.815 165.090,365.234 158.236 C 365.563 152.848,367.238 150.649,367.830 154.826 C 368.046 156.356,368.645 156.966,369.580 156.608 C 371.730 155.783,371.287 157.004,368.500 159.588 C 361.083 166.462,373.768 177.488,382.775 171.996 C 391.183 166.869,388.263 152.796,378.746 152.577 L 375.382 152.500 375.747 147.500 C 376.451 137.838,371.356 133.302,367.703 140.340 C 366.172 143.291,365.493 143.824,364.408 142.924 C 363.398 142.086,363.312 141.286,364.076 139.857 C 366.261 135.775,362.471 130.314,354.713 126.365 C 348.874 123.393,347.823 123.898,348.587 129.310 C 349.987 139.220,353.345 144.000,358.908 144.000 C 361.622 144.000,363.691 155.837,361.241 157.351 C 360.758 157.650,360.560 156.543,360.803 154.891 C 361.490 150.210,355.096 144.629,346.750 142.623 C 344.117 141.990,344.001 142.122,344.022 145.731 C 344.070 153.982,349.889 161.509,355.695 160.829 C 360.935 160.215,360.074 164.933,353.756 171.457 C 346.836 178.601,346.500 178.496,346.500 169.169 C 346.500 162.967,345.995 160.259,344.072 156.153 L 341.643 150.968 338.721 153.734 C 330.281 161.724,327.173 174.631,332.653 178.941 C 339.897 184.640,323.634 183.611,304.384 177.153 C 296.198 174.407,285.789 171.373,281.253 170.410 C 276.717 169.448,273.120 168.547,273.259 168.408 C 273.743 167.924,296.588 162.165,301.734 161.230 C 306.850 160.300,306.894 160.314,305.455 162.367 C 300.273 169.767,307.474 180.141,316.767 178.662 C 327.351 176.977,328.518 160.000,318.049 160.000 C 315.327 160.000,314.958 159.755,315.926 158.589 C 316.727 157.624,316.765 156.973,316.049 156.530 C 315.472 156.174,315.000 155.459,315.000 154.941 C 315.000 154.423,315.900 154.900,317.000 156.000 C 322.249 161.249,333.866 152.104,333.978 142.636 C 334.029 138.342,318.400 143.537,315.569 148.756 C 314.750 150.265,314.062 150.947,314.040 150.270 C 313.983 148.517,306.643 145.000,303.040 145.000 C 299.315 145.000,299.229 146.137,302.466 152.531 C 305.367 158.262,305.423 158.156,299.285 158.645 C 280.879 160.112,260.215 164.450,247.611 169.492 C 239.537 172.723,239.654 172.765,242.194 167.538 C 244.787 162.200,246.380 161.380,249.023 164.023 C 252.147 167.147,255.806 166.529,259.942 162.181 C 263.302 158.650,266.856 150.523,265.593 149.260 C 264.386 148.053,253.481 151.158,250.238 153.632 C 247.294 155.878,246.862 155.990,247.333 154.385 C 247.638 153.348,248.682 149.800,249.655 146.500 C 250.812 142.572,251.542 141.241,251.767 142.646 C 252.704 148.478,260.609 149.778,264.370 144.718 C 266.516 141.831,268.167 127.990,266.363 128.009 C 264.398 128.031,254.987 134.157,253.954 136.086 C 250.961 141.678,252.242 136.159,255.438 129.691 C 260.649 119.145,263.993 115.985,269.869 116.056 C 276.886 116.141,287.834 121.088,285.048 122.916 C 284.001 123.602,283.198 123.299,282.167 121.828 C 279.041 117.365,269.000 115.284,269.000 119.099 C 269.000 124.844,274.963 131.766,279.002 130.710 C 280.101 130.422,281.000 130.595,281.000 131.094 C 281.000 131.592,279.945 132.000,278.655 132.000 C 274.491 132.000,272.548 135.649,272.889 142.827 C 273.312 151.722,289.013 153.851,292.805 145.528 C 295.999 138.518,292.882 132.047,286.295 132.015 L 283.091 132.000 285.545 129.545 C 286.895 128.195,288.000 126.612,288.000 126.026 C 288.000 125.390,289.006 125.214,290.500 125.589 C 293.882 126.438,293.683 124.848,289.863 120.497 C 286.382 116.532,280.092 112.608,275.501 111.537 C 271.373 110.573,274.140 108.528,281.693 106.960 C 288.536 105.539,291.020 106.215,288.636 108.850 C 284.223 113.726,290.415 121.000,298.979 121.000 C 303.330 121.000,301.117 112.397,295.756 108.468 L 293.500 106.815 296.000 107.505 C 299.380 108.437,306.000 112.780,306.000 114.065 C 306.000 114.635,307.688 115.856,309.750 116.778 L 313.500 118.455 310.000 118.805 C 304.762 119.331,303.000 121.452,303.000 127.232 C 303.000 136.856,312.639 141.540,319.889 135.440 C 326.221 130.112,324.557 119.000,317.429 119.000 C 316.093 119.000,315.000 118.612,315.000 118.139 C 315.000 117.665,316.141 117.495,317.535 117.762 C 321.417 118.504,327.881 110.760,327.978 105.250 C 328.055 100.885,314.284 106.330,313.343 111.037 C 312.583 114.836,312.162 114.774,307.703 110.208 C 303.091 105.485,303.101 105.361,308.037 105.832 C 312.091 106.219,320.000 102.371,320.000 100.011 C 320.000 94.912,305.297 94.902,302.753 100.000 C 301.793 101.925,300.668 103.492,300.253 103.482 C 298.773 103.446,289.000 100.793,289.000 100.427 C 289.000 100.222,289.949 98.100,291.109 95.713 L 293.218 91.372 296.032 94.186 C 300.158 98.312,304.483 97.438,310.128 91.339 C 316.395 84.568,316.188 82.917,308.985 82.225 C 304.082 81.753,303.980 81.680,305.652 79.832 C 307.522 77.766,308.937 66.000,307.316 66.000 C 299.695 66.000,292.610 79.440,298.987 81.800 C 300.735 82.446,300.640 82.670,297.957 84.210 L 295.000 85.907 295.000 81.953 C 295.000 76.274,293.654 77.079,291.581 84.000 C 289.474 91.035,288.469 91.536,287.717 85.928 C 287.154 81.727,282.763 74.000,280.940 74.000 C 279.306 74.000,275.021 84.138,275.010 88.027 C 274.996 92.982,277.369 96.000,281.279 96.000 C 285.698 96.000,282.760 98.867,274.750 102.373 C 268.694 105.024,267.882 104.892,270.750 101.724 C 272.748 99.516,273.334 82.934,271.479 81.079 C 270.154 79.754,261.404 86.277,258.274 90.922 C 253.746 97.641,256.591 106.000,263.405 106.000 C 266.074 106.000,265.957 106.213,260.396 111.472 C 257.214 114.481,254.585 116.843,254.555 116.722 C 254.525 116.600,254.644 109.720,254.819 101.433 L 255.138 86.367 257.842 86.763 C 262.000 87.374,264.292 84.118,264.817 76.855 C 265.251 70.849,265.231 70.792,262.878 71.508 C 259.520 72.530,254.230 76.672,253.628 78.749 C 252.992 80.948,251.244 93.584,250.481 101.500 C 249.696 109.642,247.451 122.342,244.849 133.362 L 242.691 142.500 240.538 136.000 C 237.950 128.188,235.692 123.730,231.842 118.830 C 220.700 104.649,223.751 81.390,235.559 90.497 C 237.374 91.898,237.250 91.981,233.631 91.785 C 224.800 91.306,222.847 105.284,231.145 109.575 C 241.575 114.969,252.768 101.677,244.640 93.549 L 242.279 91.188 244.630 89.931 C 250.385 86.851,253.015 75.668,247.750 76.666 C 241.599 77.831,236.000 81.914,236.000 85.233 C 236.000 86.270,235.549 86.839,234.997 86.498 C 234.327 86.084,234.327 85.257,234.997 84.005 C 237.098 80.081,236.017 70.000,233.497 70.000 C 231.983 70.000,226.032 76.515,225.929 78.285 C 225.891 78.953,224.980 77.519,223.906 75.098 L 221.953 70.696 219.381 73.098 C 211.684 80.289,212.711 89.659,221.052 88.344 L 223.944 87.889 222.334 91.694 C 221.441 93.802,220.673 98.541,220.611 102.317 L 220.500 109.134 217.573 108.557 C 213.756 107.804,213.149 107.098,215.088 105.668 C 220.306 101.823,217.610 86.348,211.362 84.284 C 206.991 82.840,203.448 100.539,207.331 104.422 L 209.662 106.753 204.081 107.284 C 201.011 107.576,197.713 108.129,196.750 108.514 C 195.284 109.100,195.000 108.648,195.000 105.729 C 195.000 99.874,188.233 97.760,181.174 101.410 C 176.227 103.968,179.639 108.418,187.528 109.698 C 192.677 110.534,191.196 112.500,185.417 112.500 C 180.171 112.500,176.000 117.467,176.000 123.712 C 176.000 128.632,187.123 124.342,189.574 118.477 C 190.356 116.604,191.815 114.634,192.814 114.100 C 194.436 113.232,194.386 113.632,192.357 117.813 C 187.546 127.726,188.241 136.152,193.675 133.806 C 206.534 128.255,211.079 119.294,204.133 113.183 L 201.500 110.867 205.500 111.425 C 223.276 113.904,234.270 127.017,235.680 147.422 C 236.245 155.607,234.006 168.842,233.298 161.500 C 232.021 148.249,230.266 146.072,224.758 150.907 C 214.840 159.616,214.660 170.770,224.419 171.940 L 229.087 172.500 224.635 178.608 C 219.797 185.246,216.023 188.101,218.587 183.182 C 220.950 178.650,218.346 170.130,212.459 163.134 L 209.822 160.000 212.756 160.000 C 224.666 160.000,218.772 145.259,205.374 141.535 C 201.590 140.483,202.137 150.078,206.207 156.170 C 207.652 158.334,207.583 158.856,205.226 163.500 C 199.468 174.844,201.707 188.000,209.396 188.000 C 213.343 188.000,213.211 189.391,208.865 193.587 C 206.636 195.739,202.775 200.333,200.285 203.796 C 194.894 211.294,195.169 211.406,194.910 201.616 C 194.239 176.283,187.527 151.059,177.242 135.223 C 166.627 118.878,173.306 86.872,189.777 75.162 L 192.500 73.226 194.325 75.651 C 196.147 78.072,196.146 78.075,193.647 77.448 C 183.912 75.004,179.808 91.747,188.980 96.490 C 199.334 101.844,211.356 87.913,202.250 81.113 L 199.500 79.060 202.574 80.183 C 208.034 82.177,220.489 75.089,217.237 71.837 C 213.995 68.595,202.713 69.761,200.732 73.543 L 199.413 76.060 197.258 73.582 L 195.104 71.105 200.768 68.985 C 210.675 65.279,216.199 64.620,217.982 66.933 C 221.100 70.979,228.453 69.916,235.334 64.425 C 239.962 60.732,239.925 60.322,234.750 57.973 C 227.318 54.600,217.000 56.101,217.000 60.557 C 217.000 61.569,215.880 61.981,213.250 61.937 C 210.065 61.883,209.830 61.740,211.692 60.990 C 217.052 58.831,218.827 50.599,216.062 40.723 C 214.494 35.122,214.797 35.200,209.856 39.114 C 203.069 44.489,199.494 55.675,203.500 59.000 C 206.069 61.132,205.170 62.506,200.500 63.589 C 195.510 64.747,195.205 64.539,197.750 61.718 C 201.502 57.561,197.141 34.905,192.613 35.031 C 187.050 35.185,179.469 55.084,182.631 61.236 C 183.926 63.755,185.217 64.418,190.382 65.211 C 191.783 65.426,190.982 66.329,187.242 68.750 C 181.795 72.275,180.596 72.677,181.272 70.750 C 182.384 67.581,176.485 55.000,173.886 55.000 C 172.295 55.000,168.020 65.204,168.010 69.027 C 167.997 73.539,170.406 77.000,173.557 77.000 C 176.504 77.000,176.568 77.738,173.897 80.947 C 171.893 83.354,170.063 82.666,170.015 79.488 C 170.007 78.931,167.785 75.207,165.078 71.214 C 158.936 62.154,156.964 54.429,158.646 46.020 L 159.292 42.789 160.590 45.875 C 165.120 56.650,181.000 53.545,181.000 41.884 C 181.000 34.636,171.762 27.967,168.000 32.500 C 167.315 33.325,166.275 34.000,165.689 34.000 C 165.103 34.000,165.608 33.082,166.811 31.961 C 169.612 29.352,169.638 24.950,166.888 19.270 C 164.381 14.090,163.175 14.183,160.500 19.759 C 158.038 24.890,157.409 24.992,156.547 20.399 C 154.739 10.761,152.328 8.637,148.434 13.250 M163.009 37.706 C 161.833 38.530,160.653 38.987,160.388 38.721 C 159.559 37.892,163.107 34.948,164.154 35.595 C 164.708 35.937,164.201 36.871,163.009 37.706 M296.503 54.407 C 291.201 61.359,292.219 68.000,298.587 68.000 C 303.906 68.000,305.678 61.952,302.551 54.468 C 300.741 50.136,299.768 50.126,296.503 54.407 M284.424 64.556 C 282.909 72.631,285.768 78.407,290.976 77.792 C 296.994 77.082,296.536 69.236,290.170 63.989 C 285.580 60.205,285.233 60.239,284.424 64.556 M46.045 77.750 C 39.993 85.068,39.609 93.087,45.181 95.758 C 53.080 99.544,57.855 88.887,53.027 78.250 C 50.666 73.049,49.973 72.999,46.045 77.750 M27.622 85.712 C 25.394 87.939,28.064 100.155,31.537 103.628 C 38.662 110.753,46.933 100.827,40.370 93.028 C 37.619 89.759,28.696 84.638,27.622 85.712 M210.073 120.635 C 206.132 125.644,207.781 134.690,214.287 143.750 C 218.294 149.330,219.218 149.134,222.407 142.027 C 227.068 131.642,226.860 121.601,221.929 118.962 C 218.220 116.977,212.292 117.814,210.073 120.635 M66.500 151.103 L 71.500 152.324 66.000 154.000 C 50.595 158.697,37.574 170.775,34.468 183.250 C 33.686 186.391,36.201 187.251,37.801 184.391 C 38.596 182.971,38.771 182.961,39.288 184.308 C 39.625 185.186,39.216 186.087,38.324 186.429 C 37.073 186.909,37.012 187.310,38.010 188.512 C 39.061 189.778,38.754 190.000,35.951 190.000 C 34.140 190.000,31.844 190.736,30.850 191.636 C 29.169 193.157,28.994 193.140,28.369 191.386 C 27.999 190.349,27.069 188.766,26.302 187.870 C 25.060 186.418,25.284 186.169,28.353 185.594 C 34.655 184.411,36.900 176.766,32.089 172.871 L 29.778 171.000 31.966 171.000 C 33.169 171.000,35.469 169.685,37.077 168.077 C 42.260 162.894,40.721 152.000,34.806 152.000 C 33.027 152.000,32.934 151.785,34.102 150.377 C 35.697 148.455,57.675 148.947,66.500 151.103 M161.770 152.368 C 175.208 160.901,182.979 177.178,182.996 196.830 L 183.000 201.160 177.250 196.008 C 174.088 193.174,168.848 189.209,165.606 187.197 C 159.770 183.574,159.741 183.533,162.606 182.943 C 173.996 180.599,176.688 163.387,165.600 163.804 C 163.575 163.880,162.170 163.534,162.478 163.035 C 163.595 161.228,161.093 153.579,158.812 151.823 C 155.455 149.241,157.412 149.602,161.770 152.368 M55.081 168.849 C 54.486 169.960,54.000 171.702,54.000 172.722 C 54.000 174.078,53.166 174.638,50.889 174.812 C 49.178 174.942,46.957 175.488,45.954 176.024 C 40.858 178.752,44.560 173.888,51.410 168.857 C 55.675 165.725,56.754 165.723,55.081 168.849 M343.400 188.513 C 341.936 190.746,341.817 191.861,342.689 195.128 L 343.738 199.058 341.119 197.365 C 327.957 188.853,327.355 188.063,333.917 187.924 C 335.887 187.882,339.075 187.267,341.000 186.557 C 345.347 184.954,345.598 185.158,343.400 188.513 M150.450 192.200 L 156.939 195.399 151.719 197.073 C 148.849 197.994,145.698 199.083,144.717 199.493 C 143.105 200.168,143.052 199.981,144.160 197.549 C 145.079 195.530,145.109 194.128,144.279 191.930 C 142.924 188.339,142.592 188.324,150.450 192.200 M76.779 202.587 C 75.680 204.997,75.511 205.052,74.300 203.396 C 72.408 200.808,72.689 200.000,75.479 200.000 C 77.782 200.000,77.874 200.183,76.779 202.587 M315.046 228.800 C 307.751 236.095,315.493 246.466,330.756 249.847 C 335.999 251.009,336.214 250.679,334.621 243.925 C 331.019 228.658,322.089 221.757,315.046 228.800 M109.906 235.307 C 107.406 240.793,110.658 242.789,113.885 237.750 L 115.966 234.500 115.983 237.167 C 115.992 238.633,115.438 240.096,114.750 240.417 C 113.750 240.883,113.750 241.117,114.750 241.583 C 117.141 242.699,116.012 244.161,113.231 243.551 C 109.668 242.768,106.916 244.772,105.554 249.139 L 104.500 252.519 101.000 250.761 C 99.075 249.794,98.253 249.002,99.173 249.002 C 104.670 248.996,108.823 240.793,105.532 236.441 C 103.879 234.256,103.533 232.593,104.908 233.443 C 105.407 233.751,106.869 233.605,108.158 233.118 C 111.154 231.986,111.323 232.197,109.906 235.307 M95.686 251.116 C 94.689 251.696,93.564 252.983,93.186 253.975 C 92.571 255.593,92.229 255.481,89.865 252.889 L 87.230 250.000 92.365 250.030 C 96.455 250.055,97.131 250.275,95.686 251.116 M215.229 252.669 C 209.703 254.893,209.647 274.295,215.148 280.448 C 216.280 281.713,222.461 275.701,225.742 270.145 C 232.170 259.259,225.677 248.466,215.229 252.669 M272.000 281.000 C 265.870 287.130,272.854 293.980,285.250 293.994 C 290.833 294.001,290.836 293.990,287.063 287.413 C 282.417 279.312,276.295 276.705,272.000 281.000 " stroke="none" fill-rule="evenodd"></path></g></svg>