<svg id="svg" version="1.1" xmlns="http://www.w3.org/2000/svg" xmlns:xlink="http://www.w3.org/1999/xlink" width="400" height="400" viewBox="0, 0, 400,400"><g id="svgg"><path id="path0" d="M123.841 5.527 C 9.829 20.560,-35.118 163.782,49.569 242.188 C 90.561 280.139,157.930 288.831,205.614 262.321 L 213.005 258.211 221.536 266.872 C 228.196 273.634,229.596 276.004,227.922 277.678 C 221.209 284.391,224.001 288.045,274.232 338.280 C 328.318 392.369,330.246 393.778,350.222 393.778 C 376.582 393.778,395.337 375.301,395.337 349.333 C 395.337 331.223,394.464 330.055,339.840 275.111 C 286.907 221.868,283.500 219.236,277.259 226.756 C 275.252 229.174,273.944 228.501,266.619 221.287 L 258.268 213.060 263.216 203.864 C 314.394 108.758,231.843 -8.714,123.841 5.527 M168.462 32.181 C 252.006 52.025,282.148 158.351,221.569 219.522 C 150.113 291.676,29.125 241.242,29.734 139.556 C 30.164 67.595,97.650 15.362,168.462 32.181 M127.111 53.463 C 104.695 56.812,76.444 75.155,76.444 86.361 C 76.444 100.537,85.661 102.687,100.110 91.880 C 127.453 71.428,157.054 72.281,186.094 94.359 C 202.160 106.573,216.884 89.797,202.222 75.983 C 183.211 58.070,154.296 49.401,127.111 53.463 M252.968 252.826 L 248.181 257.823 240.780 250.559 L 233.379 243.296 238.023 238.438 L 242.667 233.581 250.211 240.705 L 257.755 247.829 252.968 252.826 M334.659 334.647 L 320.005 349.301 288.012 317.345 L 256.019 285.389 270.653 270.678 L 285.288 255.967 317.301 287.980 L 349.314 319.993 334.659 334.647 M371.549 349.229 C 371.532 363.093,357.416 373.741,344.272 369.803 L 337.263 367.703 352.184 352.704 C 368.262 336.542,371.565 335.949,371.549 349.229 " stroke="none" fill-rule="evenodd"></path></g></svg>