<svg id="svg" version="1.1" xmlns="http://www.w3.org/2000/svg" xmlns:xlink="http://www.w3.org/1999/xlink" width="400" height="400" viewBox="0, 0, 400,400"><g id="svgg"><path id="path0" d="M40.000 198.000 L 40.000 360.000 202.000 360.000 L 364.000 360.000 364.000 198.000 L 364.000 36.000 202.000 36.000 L 40.000 36.000 40.000 198.000 M356.000 120.000 L 356.000 196.000 202.000 196.000 L 48.000 196.000 48.000 120.000 L 48.000 44.000 202.000 44.000 L 356.000 44.000 356.000 120.000 M120.000 226.000 L 120.000 248.000 84.000 248.000 L 48.000 248.000 48.000 226.000 L 48.000 204.000 84.000 204.000 L 120.000 204.000 120.000 226.000 M200.000 216.000 L 200.000 228.000 164.000 228.000 L 128.000 228.000 128.000 216.000 L 128.000 204.000 164.000 204.000 L 200.000 204.000 200.000 216.000 M356.000 278.000 L 356.000 352.000 282.000 352.000 L 208.000 352.000 208.000 278.000 L 208.000 204.000 282.000 204.000 L 356.000 204.000 356.000 278.000 M200.000 258.000 L 200.000 280.000 164.000 280.000 L 128.000 280.000 128.000 258.000 L 128.000 236.000 164.000 236.000 L 200.000 236.000 200.000 258.000 M120.000 278.000 L 120.000 300.000 84.000 300.000 L 48.000 300.000 48.000 278.000 L 48.000 256.000 84.000 256.000 L 120.000 256.000 120.000 278.000 M200.000 320.000 L 200.000 352.000 164.000 352.000 L 128.000 352.000 128.000 320.000 L 128.000 288.000 164.000 288.000 L 200.000 288.000 200.000 320.000 M120.000 330.000 L 120.000 352.000 84.000 352.000 L 48.000 352.000 48.000 330.000 L 48.000 308.000 84.000 308.000 L 120.000 308.000 120.000 330.000 " stroke="none" fill-rule="evenodd"></path></g></svg>